<?xml version="1.0" encoding="UTF-8" standalone="no"?>
<!DOCTYPE svg PUBLIC "-//W3C//DTD SVG 1.1//EN" "http://www.w3.org/Graphics/SVG/1.1/DTD/svg11.dtd">
<svg width="100%" height="100%" viewBox="0 0 1000 1000" version="1.1" xmlns="http://www.w3.org/2000/svg" xmlns:xlink="http://www.w3.org/1999/xlink" xml:space="preserve" xmlns:serif="http://www.serif.com/" style="fill-rule:evenodd;clip-rule:evenodd;stroke-linejoin:round;stroke-miterlimit:2;">
    <g id="crash" transform="matrix(7.684042,0,0,7.684042,70.916138,-1783.49447)">
        <path d="M83.615,320.759C81.901,323.008 79.974,324.997 77.895,326.742C75.123,320.304 72.015,314.166 68.388,308.05C67.928,307.274 67.877,306.346 68.253,305.629C71.925,298.633 70.022,290.075 63.729,285.278C60.076,282.495 55.395,281.398 50.883,282.259C50.459,282.341 50.01,282.17 49.707,281.818C44.921,276.243 39.814,271.024 34.528,266.252C40.424,262.666 47.165,260.806 53.958,260.806C61.847,260.806 69.799,263.297 76.557,268.448C92.951,280.944 96.111,304.364 83.615,320.759ZM31.304,327.817C14.91,315.321 11.75,291.9 24.247,275.506C26.595,272.425 29.332,269.818 32.332,267.688C37.715,272.507 42.912,277.807 47.777,283.475C48.673,284.518 50.044,285.006 51.362,284.758C55.163,284.023 59.109,284.955 62.187,287.3C67.49,291.343 69.094,298.554 66.001,304.447C65.217,305.939 65.293,307.817 66.2,309.347C69.887,315.564 73.035,321.801 75.829,328.366C69.383,333.038 61.675,335.459 53.903,335.459C46.015,335.459 38.063,332.968 31.304,327.817ZM78.099,266.425C71.093,261.085 62.746,258.262 53.959,258.262C41.397,258.263 29.829,263.986 22.224,273.964C8.897,291.448 12.279,316.513 29.762,329.84C36.768,335.18 45.116,338.002 53.903,338.002C66.465,338.002 78.032,332.279 85.638,322.301C98.965,304.817 95.583,279.752 78.099,266.425Z" style="fill-rule:nonzero;"/>
        <path d="M52.11,296.745C52.481,296.259 53.018,295.946 53.625,295.864C53.729,295.849 53.833,295.842 53.936,295.842C54.434,295.842 54.916,296.004 55.318,296.311L55.319,296.311C55.805,296.682 56.118,297.22 56.2,297.826C56.281,298.432 56.122,299.035 55.752,299.52C54.987,300.523 53.548,300.716 52.543,299.954C52.057,299.582 51.744,299.044 51.662,298.438C51.58,297.832 51.739,297.231 52.11,296.745ZM51.001,301.976C51.875,302.641 52.904,302.963 53.925,302.963C55.383,302.963 56.825,302.308 57.775,301.063C58.557,300.035 58.893,298.766 58.721,297.486C58.548,296.206 57.887,295.071 56.86,294.289C55.834,293.506 54.566,293.17 53.284,293.342C52.005,293.515 50.869,294.176 50.087,295.203C49.304,296.23 48.968,297.499 49.141,298.779C49.314,300.058 49.974,301.193 51.001,301.976Z" style="fill-rule:nonzero;"/>
        <path d="M57.882,311.155C53.139,312.59 47.987,311.335 44.44,307.881C39.637,303.206 38.934,295.833 42.768,290.349C43.171,289.773 43.031,288.98 42.455,288.578C41.88,288.176 41.087,288.316 40.684,288.891C36.132,295.402 36.965,304.155 42.665,309.704C45.724,312.682 49.787,314.281 53.939,314.281C55.503,314.281 57.079,314.055 58.617,313.589C59.29,313.387 59.671,312.677 59.467,312.005C59.265,311.331 58.555,310.951 57.882,311.155Z" style="fill-rule:nonzero;"/>
    </g>
</svg>
