<?xml version="1.0" encoding="UTF-8" standalone="no"?>
<!DOCTYPE svg PUBLIC "-//W3C//DTD SVG 1.1//EN" "http://www.w3.org/Graphics/SVG/1.1/DTD/svg11.dtd">
<svg width="100%" height="100%" viewBox="0 0 1000 1000" version="1.1" xmlns="http://www.w3.org/2000/svg" xmlns:xlink="http://www.w3.org/1999/xlink" xml:space="preserve" xmlns:serif="http://www.serif.com/" style="fill-rule:evenodd;clip-rule:evenodd;stroke-linejoin:round;stroke-miterlimit:2;">
    <g id="floortom" transform="matrix(8.680777,0,0,8.680777,-5027.13219,-356.793507)">
        <path d="M677.209,101.31L676.374,101.31L676.374,95.789L677.953,95.789L677.209,101.31ZM676.772,113.091C676.772,113.764 676.226,114.309 675.553,114.309L597.866,114.309C597.193,114.309 596.647,113.764 596.647,113.091L596.647,108.957C596.647,108.167 597.288,107.526 598.078,107.526L613.776,107.526C615.262,107.526 616.671,108.015 618.007,108.667C618.017,108.672 618.029,108.673 618.039,108.678L618.039,110.918C618.039,111.621 618.608,112.19 619.311,112.19C620.013,112.19 620.583,111.621 620.583,110.918L620.583,108.663C621.916,108.014 623.323,107.526 624.806,107.526L648.612,107.526C650.099,107.526 651.508,108.015 652.844,108.667C652.848,108.669 652.852,108.669 652.856,108.671L652.856,110.918C652.856,111.621 653.424,112.19 654.127,112.19C654.83,112.19 655.399,111.621 655.399,110.918L655.399,108.671C655.403,108.669 655.407,108.669 655.411,108.667C656.747,108.015 658.156,107.526 659.643,107.526L675.341,107.526C676.131,107.526 676.772,108.167 676.772,108.957L676.772,113.091ZM596.21,101.31L595.465,95.789L597.045,95.789L597.045,101.31L596.21,101.31ZM596.21,58.823L597.045,58.823L597.045,64.345L595.465,64.345L596.21,58.823ZM596.647,47.043C596.647,46.37 597.193,45.824 597.866,45.824L675.553,45.824C676.226,45.824 676.772,46.37 676.772,47.043L676.772,51.176C676.772,51.967 676.131,52.607 675.341,52.607L659.643,52.607C658.156,52.607 656.747,52.118 655.411,51.467C655.401,51.462 655.389,51.46 655.379,51.455L655.379,49.216C655.379,48.513 654.81,47.944 654.107,47.944C653.404,47.944 652.836,48.513 652.836,49.216L652.836,51.47C651.502,52.12 650.096,52.607 648.612,52.607L624.806,52.607C623.32,52.607 621.911,52.118 620.575,51.467C620.571,51.465 620.567,51.465 620.564,51.463L620.564,49.216C620.564,48.513 619.994,47.944 619.292,47.944C618.59,47.944 618.02,48.513 618.02,49.216L618.02,51.462C618.016,51.464 618.011,51.465 618.007,51.467C616.671,52.118 615.262,52.607 613.776,52.607L598.078,52.607C597.288,52.607 596.647,51.967 596.647,51.176L596.647,47.043ZM677.209,58.823L677.953,64.345L676.374,64.345L676.374,58.823L677.209,58.823ZM652.437,65.617L653.181,60.095L655.035,60.095L655.779,65.617L652.437,65.617ZM617.62,65.617L618.365,60.095L620.219,60.095L620.964,65.617L617.62,65.617ZM620.983,94.517L620.238,100.039L618.383,100.039L617.639,94.517L620.983,94.517ZM655.798,94.517L655.054,100.039L653.2,100.039L652.456,94.517L655.798,94.517ZM659.643,104.983C658.279,104.983 656.903,105.288 655.399,105.899L655.399,102.573C656.483,102.529 657.397,101.712 657.54,100.632L658.364,94.527C658.451,93.883 658.256,93.232 657.827,92.743C657.4,92.254 656.781,91.973 656.132,91.973L655.382,91.973L655.389,90.562C655.393,89.86 654.826,89.288 654.124,89.284L654.117,89.284C653.418,89.284 652.849,89.849 652.846,90.55L652.838,91.973L652.122,91.973C651.472,91.973 650.853,92.254 650.426,92.743C649.998,93.232 649.803,93.883 649.89,94.527L650.713,100.629C650.857,101.712 651.771,102.53 652.856,102.574L652.856,105.899C651.351,105.288 649.976,104.983 648.612,104.983L624.806,104.983C623.449,104.983 622.079,105.285 620.583,105.891L620.583,102.574C621.665,102.53 622.578,101.713 622.725,100.632L623.548,94.525C623.635,93.882 623.439,93.231 623.011,92.743C622.583,92.254 621.966,91.973 621.316,91.973L620.566,91.973L620.573,90.562C620.576,89.859 620.01,89.288 619.308,89.284L619.301,89.284C618.602,89.284 618.033,89.849 618.03,90.55L618.023,91.973L617.305,91.973C616.656,91.973 616.037,92.254 615.61,92.743C615.182,93.232 614.987,93.883 615.074,94.527L615.897,100.633C616.043,101.713 616.957,102.53 618.039,102.574L618.039,105.908C616.527,105.291 615.145,104.983 613.776,104.983L599.588,104.983L599.588,55.151L613.776,55.151C615.14,55.151 616.516,54.846 618.02,54.234L618.02,57.56C616.938,57.604 616.025,58.42 615.878,59.502L615.054,65.609C614.968,66.253 615.164,66.902 615.591,67.391C616.019,67.881 616.637,68.161 617.287,68.161L618.02,68.161L618.02,69.671C618.02,70.373 618.59,70.943 619.292,70.943C619.994,70.943 620.564,70.373 620.564,69.671L620.564,68.161L621.297,68.161C621.948,68.161 622.565,67.88 622.993,67.391C623.42,66.901 623.616,66.252 623.529,65.608L622.706,59.501C622.56,58.42 621.646,57.604 620.564,57.56L620.564,54.235C622.068,54.846 623.443,55.151 624.806,55.151L648.612,55.151C649.97,55.151 651.339,54.849 652.836,54.243L652.836,57.56C651.752,57.604 650.838,58.421 650.694,59.502L649.871,65.608C649.784,66.252 649.979,66.901 650.407,67.391C650.835,67.88 651.453,68.161 652.103,68.161L652.836,68.161L652.836,69.671C652.836,70.373 653.404,70.943 654.107,70.943C654.81,70.943 655.379,70.373 655.379,69.671L655.379,68.161L656.113,68.161C656.763,68.161 657.381,67.88 657.809,67.391C658.237,66.901 658.432,66.252 658.345,65.608L657.522,59.504C657.378,58.421 656.464,57.604 655.379,57.56L655.379,54.225C656.891,54.843 658.273,55.151 659.643,55.151L673.831,55.151L673.831,104.983L659.643,104.983ZM678.287,93.245L677.407,93.245L677.407,91.086C677.407,90.468 676.959,89.977 676.374,89.863L676.374,70.895C676.959,70.78 677.407,70.289 677.407,69.671L677.407,67.021C677.407,66.974 677.386,66.934 677.381,66.889L678.287,66.889C678.936,66.889 679.555,66.608 679.982,66.119C680.411,65.629 680.606,64.98 680.519,64.336L679.695,58.229C679.545,57.118 678.585,56.28 677.463,56.28L676.374,56.28L676.374,54.997C678.063,54.539 679.315,53.008 679.315,51.176L679.315,47.043C679.315,44.968 677.627,43.281 675.553,43.281L597.866,43.281C595.791,43.281 594.104,44.968 594.104,47.043L594.104,51.176C594.104,53.008 595.356,54.539 597.045,54.997L597.045,56.28L595.955,56.28C594.833,56.28 593.874,57.118 593.723,58.23L592.9,64.336C592.813,64.979 593.009,65.629 593.436,66.119C593.864,66.608 594.482,66.889 595.132,66.889L596.038,66.889C596.033,66.934 596.011,66.974 596.011,67.021L596.011,69.671C596.011,70.289 596.461,70.78 597.045,70.895L597.045,89.863C596.461,89.978 596.011,90.468 596.011,91.086L596.011,93.245L595.132,93.245C594.482,93.245 593.864,93.526 593.437,94.015C593.009,94.504 592.813,95.155 592.9,95.798L593.723,101.905C593.874,103.015 594.833,103.854 595.955,103.854L597.045,103.854L597.045,105.136C595.356,105.594 594.104,107.125 594.104,108.957L594.104,113.091C594.104,115.165 595.791,116.853 597.866,116.853L675.553,116.853C677.627,116.853 679.315,115.165 679.315,113.091L679.315,108.957C679.315,107.125 678.063,105.594 676.374,105.136L676.374,103.854L677.463,103.854C678.585,103.854 679.544,103.015 679.695,101.904L680.519,95.798C680.606,95.155 680.411,94.504 679.982,94.015C679.555,93.526 678.936,93.245 678.287,93.245Z" style="fill-rule:nonzero;"/>
        <path d="M595.775,150.997C595.072,150.997 594.503,150.428 594.503,149.725L594.503,137.323C594.503,136.985 594.637,136.662 594.875,136.424L606.689,124.611L606.689,96.522C606.689,95.819 607.258,95.25 607.961,95.25C608.663,95.25 609.232,95.819 609.232,96.522L609.232,125.137C609.232,125.475 609.098,125.798 608.86,126.037L597.047,137.849L597.047,149.725C597.047,150.428 596.477,150.997 595.775,150.997Z" style="fill-rule:nonzero;"/>
        <path d="M677.644,150.997C676.942,150.997 676.372,150.428 676.372,149.725L676.372,137.849L664.559,126.037C664.321,125.798 664.186,125.475 664.186,125.137L664.186,96.522C664.186,95.819 664.756,95.25 665.458,95.25C666.161,95.25 666.73,95.819 666.73,96.522L666.73,124.611L678.543,136.424C678.782,136.662 678.916,136.985 678.916,137.323L678.916,149.725C678.916,150.428 678.347,150.997 677.644,150.997Z" style="fill-rule:nonzero;"/>
        <path d="M592.726,152.874L593.769,147.843C593.868,147.362 594.291,147.018 594.782,147.018L596.767,147.018C597.258,147.018 597.681,147.362 597.781,147.843L598.824,152.874C598.957,153.516 598.467,154.119 597.811,154.119L593.739,154.119C593.083,154.119 592.592,153.516 592.726,152.874Z" style="fill-rule:nonzero;"/>
        <path d="M674.595,152.874L675.638,147.843C675.738,147.362 676.161,147.018 676.651,147.018L678.637,147.018C679.127,147.018 679.55,147.362 679.65,147.843L680.693,152.874C680.826,153.516 680.336,154.119 679.68,154.119L675.608,154.119C674.952,154.119 674.462,153.516 674.595,152.874Z" style="fill-rule:nonzero;"/>
        <path d="M633.66,147.787L634.703,142.755C634.803,142.275 635.226,141.931 635.717,141.931L637.702,141.931C638.193,141.931 638.616,142.275 638.715,142.755L639.758,147.787C639.892,148.429 639.401,149.031 638.745,149.031L634.673,149.031C634.018,149.031 633.527,148.429 633.66,147.787Z" style="fill-rule:nonzero;"/>
        <path d="M636.709,146.753C636.007,146.753 635.438,146.185 635.438,145.482L635.438,116.022C635.438,115.319 636.007,114.751 636.709,114.751C637.412,114.751 637.981,115.319 637.981,116.022L637.981,145.482C637.981,146.185 637.412,146.753 636.709,146.753Z" style="fill-rule:nonzero;"/>
    </g>
</svg>
