<?xml version="1.0" encoding="UTF-8" standalone="no"?>
<!DOCTYPE svg PUBLIC "-//W3C//DTD SVG 1.1//EN" "http://www.w3.org/Graphics/SVG/1.1/DTD/svg11.dtd">
<svg width="100%" height="100%" viewBox="0 0 1000 1000" version="1.1" xmlns="http://www.w3.org/2000/svg" xmlns:xlink="http://www.w3.org/1999/xlink" xml:space="preserve" xmlns:serif="http://www.serif.com/" style="fill-rule:evenodd;clip-rule:evenodd;stroke-linejoin:round;stroke-miterlimit:2;">
    <g transform="matrix(8.375916,0,0,8.375916,-4833.024442,-298.939656)">
        <path d="M677.209,101.31L676.374,101.31L676.374,95.789L677.953,95.789L677.209,101.31ZM676.772,113.091C676.772,113.764 676.226,114.309 675.553,114.309L597.866,114.309C597.193,114.309 596.647,113.764 596.647,113.091L596.647,108.957C596.647,108.167 597.288,107.526 598.078,107.526L613.776,107.526C615.262,107.526 616.671,108.015 618.007,108.667C618.017,108.672 618.029,108.673 618.039,108.678L618.039,110.918C618.039,111.621 618.608,112.19 619.311,112.19C620.013,112.19 620.583,111.621 620.583,110.918L620.583,108.663C621.916,108.014 623.323,107.526 624.806,107.526L648.612,107.526C650.099,107.526 651.508,108.015 652.844,108.667C652.848,108.669 652.852,108.669 652.856,108.671L652.856,110.918C652.856,111.621 653.424,112.19 654.127,112.19C654.83,112.19 655.399,111.621 655.399,110.918L655.399,108.671C655.403,108.669 655.407,108.669 655.411,108.667C656.747,108.015 658.156,107.526 659.643,107.526L675.341,107.526C676.131,107.526 676.772,108.167 676.772,108.957L676.772,113.091ZM596.21,101.31L595.465,95.789L597.045,95.789L597.045,101.31L596.21,101.31ZM596.21,52.073L597.045,52.073L597.045,57.595L595.465,57.595L596.21,52.073ZM596.647,40.293C596.647,39.62 597.193,39.074 597.866,39.074L675.553,39.074C676.226,39.074 676.772,39.62 676.772,40.293L676.772,44.426C676.772,45.217 676.131,45.857 675.341,45.857L659.643,45.857C658.156,45.857 656.747,45.368 655.411,44.717C655.401,44.712 655.389,44.71 655.379,44.705L655.379,42.466C655.379,41.763 654.81,41.194 654.107,41.194C653.404,41.194 652.836,41.763 652.836,42.466L652.836,44.72C651.502,45.37 650.096,45.857 648.612,45.857L624.806,45.857C623.32,45.857 621.911,45.368 620.575,44.717C620.571,44.715 620.567,44.715 620.564,44.713L620.564,42.466C620.564,41.763 619.994,41.194 619.292,41.194C618.59,41.194 618.02,41.763 618.02,42.466L618.02,44.712C618.016,44.714 618.011,44.715 618.007,44.717C616.671,45.368 615.262,45.857 613.776,45.857L598.078,45.857C597.288,45.857 596.647,45.217 596.647,44.426L596.647,40.293ZM677.209,52.073L677.953,57.595L676.374,57.595L676.374,52.073L677.209,52.073ZM652.437,58.867L653.181,53.345L655.035,53.345L655.779,58.867L652.437,58.867ZM617.62,58.867L618.365,53.345L620.219,53.345L620.964,58.867L617.62,58.867ZM620.983,94.517L620.238,100.039L618.383,100.039L617.639,94.517L620.983,94.517ZM655.798,94.517L655.054,100.039L653.2,100.039L652.456,94.517L655.798,94.517ZM659.643,104.983C658.279,104.983 656.903,105.288 655.399,105.899L655.399,102.573C656.483,102.529 657.397,101.712 657.54,100.632L658.364,94.527C658.451,93.883 658.256,93.232 657.827,92.743C657.4,92.254 656.781,91.973 656.132,91.973L655.382,91.973L655.389,90.562C655.393,89.86 654.826,89.288 654.124,89.284L654.117,89.284C653.418,89.284 652.849,89.849 652.846,90.55L652.838,91.973L652.122,91.973C651.472,91.973 650.853,92.254 650.426,92.743C649.998,93.232 649.803,93.883 649.89,94.527L650.713,100.629C650.857,101.712 651.771,102.53 652.856,102.574L652.856,105.899C651.351,105.288 649.976,104.983 648.612,104.983L624.806,104.983C623.449,104.983 622.079,105.285 620.583,105.891L620.583,102.574C621.665,102.53 622.578,101.713 622.725,100.632L623.548,94.525C623.635,93.882 623.439,93.231 623.011,92.743C622.583,92.254 621.966,91.973 621.316,91.973L620.566,91.973L620.573,90.562C620.576,89.859 620.01,89.288 619.308,89.284L619.301,89.284C618.602,89.284 618.033,89.849 618.03,90.55L618.023,91.973L617.305,91.973C616.656,91.973 616.037,92.254 615.61,92.743C615.182,93.232 614.987,93.883 615.074,94.527L615.897,100.633C616.043,101.713 616.957,102.53 618.039,102.574L618.039,105.908C616.527,105.291 615.145,104.983 613.776,104.983L599.588,104.983L599.588,48.401L613.776,48.401C615.14,48.401 616.516,48.096 618.02,47.484L618.02,50.81C616.938,50.854 616.025,51.67 615.878,52.752L615.054,58.859C614.968,59.503 615.164,60.152 615.591,60.641C616.019,61.131 616.637,61.411 617.287,61.411L618.02,61.411L618.02,62.921C618.02,63.623 618.59,64.193 619.292,64.193C619.994,64.193 620.564,63.623 620.564,62.921L620.564,61.411L621.297,61.411C621.948,61.411 622.565,61.13 622.993,60.641C623.42,60.151 623.616,59.502 623.529,58.858L622.706,52.751C622.56,51.67 621.646,50.854 620.564,50.81L620.564,47.485C622.068,48.096 623.443,48.401 624.806,48.401L648.612,48.401C649.97,48.401 651.339,48.099 652.836,47.493L652.836,50.81C651.752,50.854 650.838,51.671 650.694,52.752L649.871,58.858C649.784,59.502 649.979,60.151 650.407,60.641C650.835,61.13 651.453,61.411 652.103,61.411L652.836,61.411L652.836,62.921C652.836,63.623 653.404,64.193 654.107,64.193C654.81,64.193 655.379,63.623 655.379,62.921L655.379,61.411L656.113,61.411C656.763,61.411 657.381,61.13 657.809,60.641C658.237,60.151 658.432,59.502 658.345,58.858L657.522,52.754C657.378,51.671 656.464,50.854 655.379,50.81L655.379,47.475C656.891,48.093 658.273,48.401 659.643,48.401L673.831,48.401L673.831,104.983L659.643,104.983ZM678.287,93.245L677.407,93.245L677.407,91.086C677.407,90.468 676.959,89.977 676.374,89.863L676.374,64.145C676.959,64.03 677.407,63.539 677.407,62.921L677.407,60.271C677.407,60.224 677.386,60.184 677.381,60.139L678.287,60.139C678.936,60.139 679.555,59.858 679.982,59.369C680.411,58.879 680.606,58.23 680.519,57.586L679.695,51.479C679.545,50.368 678.585,49.53 677.463,49.53L676.374,49.53L676.374,48.247C678.063,47.789 679.315,46.258 679.315,44.426L679.315,40.293C679.315,38.218 677.627,36.531 675.553,36.531L597.866,36.531C595.791,36.531 594.104,38.218 594.104,40.293L594.104,44.426C594.104,46.258 595.356,47.789 597.045,48.247L597.045,49.53L595.955,49.53C594.833,49.53 593.874,50.368 593.723,51.48L592.9,57.586C592.813,58.229 593.009,58.879 593.436,59.369C593.864,59.858 594.482,60.139 595.132,60.139L596.038,60.139C596.033,60.184 596.011,60.224 596.011,60.271L596.011,62.921C596.011,63.539 596.461,64.03 597.045,64.145L597.045,89.863C596.461,89.978 596.011,90.468 596.011,91.086L596.011,93.245L595.132,93.245C594.482,93.245 593.864,93.526 593.437,94.015C593.009,94.504 592.813,95.155 592.9,95.798L593.723,101.905C593.874,103.015 594.833,103.854 595.955,103.854L597.045,103.854L597.045,105.136C595.356,105.594 594.104,107.125 594.104,108.957L594.104,113.091C594.104,115.165 595.791,116.853 597.866,116.853L675.553,116.853C677.627,116.853 679.315,115.165 679.315,113.091L679.315,108.957C679.315,107.125 678.063,105.594 676.374,105.136L676.374,103.854L677.463,103.854C678.585,103.854 679.544,103.015 679.695,101.904L680.519,95.798C680.606,95.155 680.411,94.504 679.982,94.015C679.555,93.526 678.936,93.245 678.287,93.245Z" style="fill:rgb(3,4,4);fill-rule:nonzero;"/>
        <path d="M595.775,150.997C595.072,150.997 594.503,150.428 594.503,149.725L594.503,137.323C594.503,136.985 594.637,136.662 594.875,136.424L606.689,124.611L606.689,96.522C606.689,95.819 607.258,95.25 607.961,95.25C608.663,95.25 609.232,95.819 609.232,96.522L609.232,125.137C609.232,125.475 609.098,125.798 608.86,126.037L597.047,137.849L597.047,149.725C597.047,150.428 596.477,150.997 595.775,150.997Z" style="fill:rgb(3,4,4);fill-rule:nonzero;"/>
        <path d="M677.644,150.997C676.942,150.997 676.372,150.428 676.372,149.725L676.372,137.849L664.559,126.037C664.321,125.798 664.186,125.475 664.186,125.137L664.186,96.522C664.186,95.819 664.756,95.25 665.458,95.25C666.161,95.25 666.73,95.819 666.73,96.522L666.73,124.611L678.543,136.424C678.782,136.662 678.916,136.985 678.916,137.323L678.916,149.725C678.916,150.428 678.347,150.997 677.644,150.997Z" style="fill:rgb(3,4,4);fill-rule:nonzero;"/>
        <path d="M592.726,152.874L593.769,147.843C593.868,147.362 594.291,147.018 594.782,147.018L596.767,147.018C597.258,147.018 597.681,147.362 597.781,147.843L598.824,152.874C598.957,153.516 598.467,154.119 597.811,154.119L593.739,154.119C593.083,154.119 592.592,153.516 592.726,152.874Z" style="fill:rgb(3,4,4);fill-rule:nonzero;"/>
        <path d="M674.595,152.874L675.638,147.843C675.738,147.362 676.161,147.018 676.651,147.018L678.637,147.018C679.127,147.018 679.55,147.362 679.65,147.843L680.693,152.874C680.826,153.516 680.336,154.119 679.68,154.119L675.608,154.119C674.952,154.119 674.462,153.516 674.595,152.874Z" style="fill:rgb(3,4,4);fill-rule:nonzero;"/>
        <path d="M633.66,147.787L634.703,142.755C634.803,142.275 635.226,141.931 635.717,141.931L637.702,141.931C638.193,141.931 638.616,142.275 638.715,142.755L639.758,147.787C639.892,148.429 639.401,149.031 638.745,149.031L634.673,149.031C634.018,149.031 633.527,148.429 633.66,147.787Z" style="fill:rgb(3,4,4);fill-rule:nonzero;"/>
        <path d="M636.709,146.753C636.007,146.753 635.438,146.185 635.438,145.482L635.438,116.022C635.438,115.319 636.007,114.751 636.709,114.751C637.412,114.751 637.981,115.319 637.981,116.022L637.981,145.482C637.981,146.185 637.412,146.753 636.709,146.753Z" style="fill:rgb(3,4,4);fill-rule:nonzero;"/>
    </g>
</svg>
