<?xml version="1.0" encoding="UTF-8" standalone="no"?>
<!DOCTYPE svg PUBLIC "-//W3C//DTD SVG 1.1//EN" "http://www.w3.org/Graphics/SVG/1.1/DTD/svg11.dtd">
<svg width="100%" height="100%" viewBox="0 0 1000 1000" version="1.1" xmlns="http://www.w3.org/2000/svg" xmlns:xlink="http://www.w3.org/1999/xlink" xml:space="preserve" xmlns:serif="http://www.serif.com/" style="fill-rule:evenodd;clip-rule:evenodd;stroke-linejoin:round;stroke-miterlimit:2;">
    <g transform="matrix(8.375916,0,0,8.375916,-1165.684984,-2805.51773)">
        <path d="M149.077,428.476L149.205,428.476L149.205,426.695C149.205,425.678 149.968,424.915 150.985,424.915L246.753,424.915C247.77,424.915 248.533,425.678 248.533,426.695L248.533,428.476C248.533,429.493 247.77,430.256 246.753,430.256L150.858,430.256C149.84,430.256 149.077,429.493 149.077,428.476ZM209.234,422.371L169.808,422.371L169.808,406.855L209.234,422.371ZM225.514,422.371L216.229,422.371L169.808,404.184L169.808,400.496L225.514,422.371ZM164.339,385.361C165.357,385.361 166.374,385.107 167.392,384.853L167.392,422.498L161.414,422.498L161.414,384.98C162.304,385.234 163.322,385.361 164.339,385.361ZM164.212,382.563C159.252,382.563 155.309,378.621 155.309,373.661C155.309,368.7 159.252,364.758 164.212,364.758C166.247,364.758 168.155,365.521 169.681,366.666L171.334,368.319C172.479,369.845 173.242,371.753 173.242,373.788C173.242,378.748 169.299,382.818 164.212,382.563ZM173.624,367.047L173.242,366.666C172.733,366.03 172.225,365.521 171.589,365.012L176.421,360.179L178.456,362.214L173.624,367.047ZM171.461,361.705L169.554,363.613C167.9,362.85 166.247,362.341 164.339,362.341C157.98,362.341 152.893,367.429 152.893,373.788C152.893,378.112 155.309,381.927 158.87,383.835L158.87,392.611C152.639,385.361 150.349,380.147 150.349,373.788C150.349,366.03 156.581,359.798 164.339,359.798C166.883,359.798 169.299,360.561 171.461,361.705ZM146.661,426.695L146.661,428.476C146.661,430.892 148.569,432.8 150.985,432.8L246.753,432.8C249.169,432.8 251.077,430.892 251.077,428.476L251.077,426.695C251.077,424.279 249.169,422.371 246.753,422.371L232.509,422.371L169.681,397.825L169.681,383.962C173.242,382.055 175.658,378.239 175.658,373.915C175.658,372.389 175.404,370.863 174.768,369.464L181.89,362.341L179.983,360.434L178.456,358.526L176.421,356.491L173.115,359.798C170.444,358.144 167.392,357.254 164.212,357.254C155.055,357.254 147.678,364.631 147.678,373.788C147.678,381.419 150.604,387.523 158.489,396.299C158.616,396.299 158.616,396.426 158.743,396.426L158.743,422.371L150.858,422.371C148.441,422.371 146.534,424.279 146.661,426.695Z" style="fill:rgb(3,4,4);fill-rule:nonzero;"/>
        <path d="M161.414,373.788C161.414,372.134 162.686,370.863 164.339,370.863C165.993,370.863 167.264,372.134 167.264,373.788C167.264,375.441 165.993,376.84 164.339,376.713C162.686,376.713 161.414,375.441 161.414,373.788ZM164.339,379.256C167.392,379.256 169.808,376.84 169.808,373.788C169.808,370.735 167.392,368.319 164.339,368.319C161.287,368.319 158.87,370.735 158.87,373.788C158.87,376.84 161.287,379.256 164.339,379.256Z" style="fill:rgb(3,4,4);fill-rule:nonzero;"/>
    </g>
</svg>
