<?xml version="1.0" encoding="UTF-8" standalone="no"?>
<!DOCTYPE svg PUBLIC "-//W3C//DTD SVG 1.1//EN" "http://www.w3.org/Graphics/SVG/1.1/DTD/svg11.dtd">
<svg width="100%" height="100%" viewBox="0 0 1000 1000" version="1.1" xmlns="http://www.w3.org/2000/svg" xmlns:xlink="http://www.w3.org/1999/xlink" xml:space="preserve" xmlns:serif="http://www.serif.com/" style="fill-rule:evenodd;clip-rule:evenodd;stroke-linejoin:round;stroke-miterlimit:2;">
    <g id="hihat" transform="matrix(1,0,0,1,-3.213567,157.201726)">
        <g transform="matrix(7.800161,0,0,7.800161,-3376.097799,-84.049885)">
            <path d="M554.242,51.146L554.036,51.146L553.841,51.211C553.686,51.263 537.894,56.349 497.341,56.373C456.787,56.397 440.989,51.33 440.834,51.278L440.638,51.214L440.433,51.214C440.353,51.214 440.221,51.214 440.191,51.004C440.161,50.793 440.289,50.757 440.365,50.734L477.722,40.009C480.463,39.222 482.809,37.596 484.328,35.432C487.056,31.543 491.373,29.117 496.052,28.735L496.053,29.929C496.053,30.632 496.623,31.2 497.326,31.2C498.028,31.199 498.597,30.63 498.597,29.927L498.596,28.733C503.276,29.11 507.596,31.531 510.328,35.416C511.85,37.579 514.198,39.202 516.94,39.985L554.309,50.667C554.385,50.689 554.513,50.725 554.484,50.936C554.454,51.146 554.321,51.146 554.242,51.146ZM516.953,61.888C514.211,62.675 511.866,64.301 510.347,66.466C507.372,70.705 502.514,73.238 497.351,73.241C492.188,73.244 487.326,70.717 484.346,66.483C482.824,64.318 480.477,62.695 477.735,61.913L461.899,57.386C470.631,58.252 482.264,58.925 497.342,58.917C512.418,58.908 524.049,58.22 532.78,57.344L516.953,61.888ZM499.335,94.125C498.911,94.318 498.23,94.542 497.363,94.542C496.489,94.543 495.812,94.321 495.391,94.13L495.38,75.665C496.032,75.735 496.689,75.785 497.352,75.784C498.016,75.784 498.672,75.734 499.324,75.663L499.335,94.125ZM555.009,48.222L517.638,37.541C515.453,36.916 513.597,35.642 512.409,33.952C509.2,29.39 504.102,26.571 498.595,26.189L498.587,13.631C498.587,12.928 498.017,12.359 497.315,12.36C496.612,12.36 496.043,12.929 496.043,13.632L496.051,26.191C490.543,26.579 485.449,29.404 482.246,33.97C481.059,35.661 479.204,36.938 477.02,37.565L439.663,48.291C438.292,48.684 437.473,49.946 437.672,51.36C437.834,52.508 438.618,53.372 439.672,53.654L439.666,53.675L477.037,64.357C479.22,64.981 481.077,66.255 482.266,67.946C484.834,71.595 488.609,74.144 492.836,75.215L492.847,94.863C492.848,95.257 493.03,95.627 493.341,95.867C493.502,95.993 494.984,97.087 497.365,97.086C499.745,97.085 501.226,95.988 501.388,95.863C501.698,95.622 501.88,95.251 501.879,94.858L501.868,75.21C506.093,74.134 509.866,71.58 512.429,67.927C513.615,66.236 515.471,64.959 517.655,64.333L555.012,53.606L555.006,53.586C556.06,53.302 556.842,52.438 557.003,51.289C557.201,49.875 556.38,48.614 555.009,48.222Z" style="fill-rule:nonzero;"/>
        </g>
        <g transform="matrix(7.800161,0,0,7.800161,-3376.097799,-84.049885)">
            <path d="M506.878,42.905C498.001,46.917 487.841,42.936 487.739,42.895C487.086,42.634 486.346,42.95 486.085,43.602C485.824,44.253 486.139,44.993 486.79,45.256C487.089,45.376 491.876,47.261 497.934,47.257C501.072,47.256 504.553,46.747 507.925,45.222C508.565,44.934 508.85,44.18 508.561,43.54C508.271,42.899 507.517,42.614 506.878,42.905Z" style="fill-rule:nonzero;"/>
        </g>
    </g>
</svg>
