<?xml version="1.0" encoding="UTF-8" standalone="no"?>
<!DOCTYPE svg PUBLIC "-//W3C//DTD SVG 1.1//EN" "http://www.w3.org/Graphics/SVG/1.1/DTD/svg11.dtd">
<svg width="100%" height="100%" viewBox="0 0 1000 1000" version="1.1" xmlns="http://www.w3.org/2000/svg" xmlns:xlink="http://www.w3.org/1999/xlink" xml:space="preserve" xmlns:serif="http://www.serif.com/" style="fill-rule:evenodd;clip-rule:evenodd;stroke-linejoin:round;stroke-miterlimit:2;">
    <g transform="matrix(1.224558,0,0,1.224558,-140.6832,-143.333568)">
        <g transform="matrix(7.347415,0,0,7.347415,-4164.526412,-3228.153715)">
            <path d="M637.842,550.631C614.936,550.631 596.383,532.077 596.383,509.171C596.383,486.265 614.936,467.712 637.842,467.712C660.748,467.712 679.301,486.265 679.301,509.171C679.301,532.077 660.748,550.631 637.842,550.631ZM637.842,465.421C613.676,465.421 594.092,485.006 594.092,509.171C594.092,533.337 613.676,552.921 637.842,552.921C662.008,552.921 681.592,533.337 681.592,509.171C681.592,485.006 662.008,465.421 637.842,465.421Z" style="fill:rgb(3,4,4);fill-rule:nonzero;"/>
        </g>
        <g transform="matrix(7.347415,0,0,7.347415,-4164.526412,-3228.153715)">
            <path d="M653.647,536.658C648.149,536.658 643.568,532.191 643.568,526.579C643.568,520.967 648.035,516.501 653.647,516.501C659.259,516.501 663.725,520.967 663.725,526.579C663.725,532.191 659.144,536.658 653.647,536.658ZM653.647,514.326C646.89,514.326 641.278,519.822 641.278,526.694C641.278,533.566 646.775,538.949 653.647,538.949C660.519,538.949 666.016,533.451 666.016,526.579C666.016,519.709 660.404,514.326 653.647,514.326Z" style="fill:rgb(3,4,4);fill-rule:nonzero;"/>
        </g>
        <g transform="matrix(7.347415,0,0,7.347415,-4164.526412,-3228.153715)">
            <path d="M682.966,560.709L682.05,551.776L685.715,551.776L689.38,560.709L682.966,560.709ZM637.842,555.441C612.302,555.441 591.572,534.711 591.572,509.171C591.572,483.631 612.302,462.901 637.842,462.901C663.382,462.901 684.112,483.631 684.112,509.171C684.112,534.711 663.382,555.441 637.842,555.441ZM592.947,560.709L586.533,560.709L590.198,551.776L593.863,551.776L592.947,560.709ZM692.129,561.396L687.547,550.172C687.318,549.714 686.975,549.485 686.517,549.485L684.799,549.485L679.416,534.253C679.416,534.253 679.416,534.138 679.301,534.138C680.561,532.077 681.706,529.901 682.623,527.61C684.112,527.267 685.371,526.121 685.83,524.633C686.173,523.488 686.059,522.227 685.601,521.197C685.486,520.853 685.257,520.624 685.028,520.28C685.944,516.615 686.402,512.837 686.402,509.057C686.402,505.163 685.944,501.383 685.028,497.833C685.257,497.604 685.486,497.26 685.601,496.916C686.173,495.886 686.288,494.626 685.83,493.481C685.486,492.335 684.684,491.419 683.539,490.846C683.195,490.732 682.852,490.617 682.508,490.503C679.53,483.402 674.949,477.217 669.223,472.293C669.337,470.804 668.65,469.2 667.39,468.284C666.36,467.597 665.214,467.253 663.955,467.483C663.611,467.483 663.267,467.597 662.924,467.826C656.625,464.047 649.295,461.642 641.507,460.954C640.705,459.695 639.331,458.778 637.613,458.778C636.01,458.778 634.521,459.695 633.719,460.954C625.931,461.527 618.601,464.047 612.302,467.941C611.958,467.826 611.615,467.712 611.271,467.597C610.011,467.368 608.866,467.712 607.835,468.399C606.805,469.086 606.232,470.117 606.003,471.377C605.888,471.72 606.003,472.064 606.003,472.407C600.276,477.332 595.695,483.517 592.718,490.617C592.374,490.732 592.03,490.846 591.687,490.961C590.656,491.534 589.854,492.45 589.396,493.595C589.053,494.74 589.167,496 589.625,497.031C589.74,497.375 589.969,497.604 590.198,497.947C589.74,501.498 589.282,505.277 589.282,509.171C589.282,513.066 589.74,516.845 590.656,520.395C590.427,520.624 590.198,520.967 590.083,521.311C589.511,522.342 589.396,523.602 589.854,524.748C590.313,526.35 591.572,527.381 593.061,527.725C594.092,530.13 595.237,532.306 596.497,534.482L591.229,549.485L589.396,549.485C588.938,549.485 588.48,549.714 588.365,550.172L583.784,561.396C583.67,561.74 583.67,562.198 583.899,562.427C584.128,562.771 584.471,563 584.815,563L593.977,563C594.55,563 595.008,562.542 595.123,561.969L596.268,550.745C596.268,550.401 596.153,550.058 595.924,549.829C595.695,549.6 595.352,549.485 595.123,549.485L593.634,549.485L598.1,536.887C600.505,540.208 603.254,543.301 606.346,545.935L606.346,546.966C606.576,548.111 607.148,549.256 608.179,549.943C608.981,550.516 609.897,550.86 610.813,550.86L611.5,550.86C611.844,550.86 612.188,550.745 612.531,550.516C618.83,554.41 626.16,556.815 633.948,557.502C634.75,558.762 636.124,559.678 637.842,559.678C639.445,559.678 640.934,558.762 641.736,557.502C649.524,556.93 656.854,554.41 663.153,550.516C663.726,550.745 664.298,550.86 664.871,550.86C665.787,550.86 666.703,550.631 667.505,549.943C668.879,549.027 669.452,547.424 669.337,545.935C672.544,543.186 675.293,540.094 677.698,536.543L682.279,549.485L680.79,549.485C680.447,549.485 680.103,549.6 679.989,549.829C679.874,550.058 679.645,550.402 679.645,550.745L680.79,561.969C680.905,562.542 681.363,563 681.935,563L691.098,563C691.441,563 691.785,562.771 692.014,562.542C692.243,562.313 692.358,561.74 692.129,561.396Z" style="fill:rgb(3,4,4);fill-rule:nonzero;"/>
        </g>
    </g>
</svg>
