<?xml version="1.0" encoding="UTF-8" standalone="no"?>
<!DOCTYPE svg PUBLIC "-//W3C//DTD SVG 1.1//EN" "http://www.w3.org/Graphics/SVG/1.1/DTD/svg11.dtd">
<svg width="100%" height="100%" viewBox="0 0 1000 1000" version="1.1" xmlns="http://www.w3.org/2000/svg" xmlns:xlink="http://www.w3.org/1999/xlink" xml:space="preserve" xmlns:serif="http://www.serif.com/" style="fill-rule:evenodd;clip-rule:evenodd;stroke-linejoin:round;stroke-miterlimit:2;">
    <g transform="matrix(8.375916,0,0,8.375916,-4801.833921,-1501.766401)">
        <path d="M673.485,266.692L672.65,266.692L672.65,261.17L674.229,261.17L673.485,266.692ZM673.048,278.472C673.048,279.145 672.502,279.691 671.829,279.691L594.142,279.691C593.469,279.691 592.923,279.145 592.923,278.472L592.923,274.339C592.923,273.549 593.564,272.908 594.354,272.908L610.052,272.908C611.539,272.908 612.948,273.397 614.284,274.049C614.294,274.054 614.305,274.055 614.315,274.06L614.315,276.3C614.315,277.003 614.885,277.572 615.587,277.572C616.289,277.572 616.859,277.003 616.859,276.3L616.859,274.045C618.193,273.396 619.599,272.908 621.083,272.908L644.889,272.908C646.375,272.908 647.784,273.397 649.12,274.049C649.124,274.051 649.128,274.051 649.132,274.053L649.132,276.3C649.132,277.003 649.701,277.572 650.404,277.572C651.107,277.572 651.675,277.003 651.675,276.3L651.675,274.053C651.679,274.051 651.684,274.051 651.688,274.049C653.024,273.397 654.432,272.908 655.919,272.908L671.617,272.908C672.407,272.908 673.048,273.549 673.048,274.339L673.048,278.472ZM592.486,266.692L591.742,261.17L593.321,261.17L593.321,266.692L592.486,266.692ZM592.486,211.168L593.321,211.168L593.321,216.69L591.742,216.69L592.486,211.168ZM592.923,199.388C592.923,198.715 593.469,198.169 594.142,198.169L671.829,198.169C672.502,198.169 673.048,198.715 673.048,199.388L673.048,203.521C673.048,204.311 672.407,204.952 671.617,204.952L655.919,204.952C654.432,204.952 653.024,204.463 651.688,203.812C651.677,203.807 651.666,203.805 651.656,203.8L651.656,201.56C651.656,200.858 651.087,200.289 650.384,200.289C649.681,200.289 649.112,200.858 649.112,201.56L649.112,203.815C647.778,204.465 646.372,204.952 644.889,204.952L621.083,204.952C619.596,204.952 618.187,204.463 616.851,203.812C616.848,203.81 616.844,203.809 616.84,203.808L616.84,201.56C616.84,200.858 616.271,200.289 615.568,200.289C614.866,200.289 614.297,200.858 614.297,201.56L614.297,203.807C614.292,203.809 614.288,203.81 614.284,203.812C612.948,204.463 611.539,204.952 610.052,204.952L594.354,204.952C593.564,204.952 592.923,204.311 592.923,203.521L592.923,199.388ZM673.485,211.168L674.229,216.69L672.65,216.69L672.65,211.168L673.485,211.168ZM648.713,217.962L649.457,212.44L651.311,212.44L652.055,217.962L648.713,217.962ZM613.896,217.962L614.641,212.44L616.495,212.44L617.24,217.962L613.896,217.962ZM617.259,259.898L616.514,265.42L614.66,265.42L613.915,259.898L617.259,259.898ZM652.074,259.898L651.33,265.42L649.476,265.42L648.732,259.898L652.074,259.898ZM655.919,270.365C654.555,270.365 653.18,270.67 651.675,271.281L651.675,267.955C652.759,267.911 653.673,267.094 653.817,266.014L654.64,259.908C654.727,259.265 654.532,258.614 654.104,258.125C653.676,257.635 653.058,257.355 652.408,257.355L651.658,257.355L651.665,255.944C651.669,255.242 651.103,254.669 650.4,254.666L650.394,254.666C649.694,254.666 649.125,255.231 649.122,255.931L649.114,257.355L648.398,257.355C647.748,257.355 647.13,257.635 646.702,258.125C646.274,258.614 646.079,259.265 646.166,259.908L646.989,266.011C647.133,267.094 648.047,267.912 649.132,267.955L649.132,271.281C647.628,270.67 646.252,270.365 644.889,270.365L621.083,270.365C619.725,270.365 618.355,270.666 616.859,271.273L616.859,267.955C617.941,267.912 618.854,267.095 619.001,266.014L619.825,259.907C619.911,259.264 619.715,258.613 619.287,258.125C618.86,257.635 618.242,257.355 617.592,257.355L616.843,257.355L616.849,255.944C616.852,255.241 616.286,254.669 615.584,254.666L615.578,254.666C614.878,254.666 614.31,255.231 614.306,255.931L614.299,257.355L613.582,257.355C612.932,257.355 612.314,257.635 611.886,258.125C611.458,258.614 611.263,259.265 611.35,259.908L612.173,266.015C612.319,267.095 613.233,267.912 614.315,267.955L614.315,271.29C612.803,270.673 611.422,270.365 610.052,270.365L595.864,270.365L595.864,207.496L610.052,207.496C611.416,207.496 612.792,207.19 614.297,206.579L614.297,209.904C613.214,209.948 612.301,210.765 612.154,211.847L611.331,217.954C611.244,218.598 611.44,219.247 611.868,219.736C612.296,220.225 612.914,220.505 613.563,220.505L614.297,220.505L614.297,222.016C614.297,222.718 614.866,223.287 615.568,223.287C616.271,223.287 616.84,222.718 616.84,222.016L616.84,220.505L617.573,220.505C618.224,220.505 618.842,220.225 619.269,219.735C619.697,219.246 619.892,218.596 619.805,217.953L618.982,211.846C618.836,210.765 617.922,209.948 616.84,209.904L616.84,206.58C618.344,207.191 619.719,207.496 621.083,207.496L644.889,207.496C646.246,207.496 647.615,207.194 649.112,206.588L649.112,209.904C648.028,209.949 647.114,210.766 646.971,211.847L646.147,217.953C646.06,218.596 646.255,219.246 646.684,219.735C647.111,220.225 647.729,220.505 648.379,220.505L649.112,220.505L649.112,222.016C649.112,222.718 649.681,223.287 650.384,223.287C651.087,223.287 651.656,222.718 651.656,222.016L651.656,220.505L652.39,220.505C653.039,220.505 653.658,220.225 654.085,219.735C654.513,219.246 654.708,218.596 654.621,217.953L653.798,211.849C653.654,210.766 652.74,209.948 651.656,209.904L651.656,206.57C653.167,207.187 654.549,207.496 655.919,207.496L670.107,207.496L670.107,270.365L655.919,270.365ZM674.563,258.626L673.684,258.626L673.684,256.468C673.684,255.849 673.235,255.359 672.65,255.244L672.65,223.239C673.235,223.124 673.684,222.634 673.684,222.016L673.684,219.366C673.684,219.319 673.662,219.279 673.657,219.234L674.563,219.234C675.213,219.234 675.831,218.953 676.258,218.464C676.687,217.974 676.882,217.325 676.795,216.681L675.971,210.574C675.821,209.463 674.861,208.624 673.74,208.624L672.65,208.624L672.65,207.342C674.339,206.884 675.591,205.353 675.591,203.521L675.591,199.388C675.591,197.313 673.904,195.626 671.829,195.626L594.142,195.626C592.068,195.626 590.38,197.313 590.38,199.388L590.38,203.521C590.38,205.353 591.632,206.884 593.321,207.342L593.321,208.624L592.232,208.624C591.109,208.624 590.15,209.463 589.999,210.575L589.176,216.681C589.089,217.324 589.285,217.974 589.712,218.464C590.14,218.953 590.758,219.234 591.408,219.234L592.314,219.234C592.309,219.279 592.287,219.319 592.287,219.366L592.287,222.016C592.287,222.633 592.737,223.124 593.321,223.239L593.321,255.244C592.737,255.359 592.287,255.85 592.287,256.468L592.287,258.626L591.408,258.626C590.758,258.626 590.141,258.907 589.713,259.396C589.285,259.886 589.089,260.537 589.176,261.18L590,267.287C590.15,268.397 591.109,269.236 592.232,269.236L593.321,269.236L593.321,270.518C591.632,270.976 590.38,272.507 590.38,274.339L590.38,278.472C590.38,280.547 592.068,282.235 594.142,282.235L671.829,282.235C673.904,282.235 675.591,280.547 675.591,278.472L675.591,274.339C675.591,272.507 674.339,270.976 672.65,270.518L672.65,269.236L673.74,269.236C674.861,269.236 675.82,268.397 675.971,267.286L676.795,261.18C676.882,260.537 676.687,259.886 676.258,259.396C675.831,258.907 675.213,258.626 674.563,258.626Z" style="fill:rgb(3,4,4);fill-rule:nonzero;"/>
    </g>
</svg>
