<?xml version="1.0" encoding="UTF-8" standalone="no"?>
<!DOCTYPE svg PUBLIC "-//W3C//DTD SVG 1.1//EN" "http://www.w3.org/Graphics/SVG/1.1/DTD/svg11.dtd">
<svg width="100%" height="100%" viewBox="0 0 1000 1000" version="1.1" xmlns="http://www.w3.org/2000/svg" xmlns:xlink="http://www.w3.org/1999/xlink" xml:space="preserve" xmlns:serif="http://www.serif.com/" style="fill-rule:evenodd;clip-rule:evenodd;stroke-linejoin:round;stroke-miterlimit:2;">
    <g transform="matrix(8.375916,0,0,8.375916,3.96051,-964.744473)">
        <path d="M103.559,208.611C99.62,213.777 94.948,218.047 89.81,221.419C85.585,207.837 80.456,196.162 73.678,184.733C73.219,183.957 73.167,183.031 73.544,182.313C77.216,175.317 75.313,166.758 69.02,161.961C65.367,159.178 60.685,158.076 56.174,158.943C55.754,159.019 55.301,158.854 54.998,158.501C40.648,141.787 27.415,132.788 24.716,131.035C34.691,123.162 46.921,119.065 59.263,119.065C71.045,119.065 82.922,122.785 93.016,130.479C117.503,149.143 122.223,184.124 103.559,208.611ZM25.427,219.152C0.94,200.488 -3.779,165.507 14.885,141.021C17.243,137.927 19.875,135.169 22.7,132.713C22.761,132.769 22.808,132.836 22.882,132.881C23.024,132.969 37.337,141.834 53.068,160.158C53.963,161.201 55.339,161.695 56.652,161.441C60.454,160.714 64.399,161.639 67.477,163.984C72.78,168.027 74.385,175.238 71.291,181.13C70.508,182.623 70.583,184.501 71.49,186.03C78.243,197.417 83.34,209.051 87.531,222.643C87.547,222.697 87.58,222.739 87.603,222.789C78.94,227.91 69.098,230.567 59.18,230.567C47.398,230.567 35.521,226.847 25.427,219.152ZM94.558,128.456C84.315,120.648 72.11,116.521 59.263,116.521C40.895,116.522 23.983,124.889 12.862,139.479C-6.622,165.042 -1.677,201.691 23.885,221.175C34.128,228.983 46.333,233.11 59.18,233.11C77.548,233.11 94.46,224.743 105.582,210.153C125.066,184.59 120.122,147.941 94.558,128.456Z" style="fill:rgb(3,4,4);fill-rule:nonzero;"/>
        <path d="M57.401,173.428C57.771,172.942 58.309,172.629 58.915,172.547C59.02,172.533 59.123,172.526 59.226,172.526C59.724,172.526 60.206,172.688 60.609,172.995C61.096,173.366 61.409,173.904 61.491,174.509C61.571,175.115 61.412,175.717 61.041,176.204C60.671,176.69 60.133,177.003 59.528,177.085C58.923,177.166 58.321,177.007 57.834,176.636C57.347,176.265 57.034,175.728 56.952,175.122C56.871,174.516 57.03,173.914 57.401,173.428ZM56.292,178.659C57.142,179.308 58.16,179.65 59.212,179.65C59.429,179.65 59.648,179.635 59.867,179.605C61.147,179.432 62.282,178.773 63.064,177.746C63.848,176.719 64.183,175.449 64.011,174.169C63.838,172.89 63.179,171.754 62.151,170.972C61.124,170.189 59.857,169.856 58.575,170.026C57.296,170.199 56.16,170.859 55.377,171.886C54.595,172.912 54.259,174.182 54.432,175.462C54.604,176.741 55.265,177.878 56.292,178.659Z" style="fill:rgb(3,4,4);fill-rule:nonzero;"/>
        <path d="M63.174,187.838C58.431,189.274 53.278,188.018 49.731,184.565C44.928,179.889 44.225,172.516 48.059,167.032C48.462,166.457 48.322,165.664 47.746,165.261C47.17,164.859 46.378,165 45.975,165.574C41.422,172.085 42.256,180.838 47.956,186.388C51.016,189.365 55.078,190.966 59.23,190.966C60.793,190.966 62.37,190.738 63.909,190.273C64.582,190.069 64.962,189.36 64.758,188.688C64.555,188.016 63.841,187.634 63.174,187.838Z" style="fill:rgb(3,4,4);fill-rule:nonzero;"/>
    </g>
</svg>
