<?xml version="1.0" encoding="UTF-8" standalone="no"?>
<!DOCTYPE svg PUBLIC "-//W3C//DTD SVG 1.1//EN" "http://www.w3.org/Graphics/SVG/1.1/DTD/svg11.dtd">
<svg width="100%" height="100%" viewBox="0 0 1000 1000" version="1.1" xmlns="http://www.w3.org/2000/svg" xmlns:xlink="http://www.w3.org/1999/xlink" xml:space="preserve" xmlns:serif="http://www.serif.com/" style="fill-rule:evenodd;clip-rule:evenodd;stroke-linejoin:round;stroke-miterlimit:2;">
    <g transform="matrix(9.505714,0,0,9.505714,-16.992305,-3317.28072)">
        <g id="Snare">
            <path d="M102.518,417.257L101.684,417.257L101.684,411.735L103.262,411.735L102.518,417.257ZM102.081,429.038C102.081,429.711 101.535,430.256 100.862,430.256L7.913,430.256C7.24,430.256 6.694,429.711 6.694,429.038L6.694,424.904C6.694,424.114 7.335,423.473 8.125,423.473L28.91,423.473C30.397,423.473 31.806,423.963 33.142,424.614C33.152,424.619 33.163,424.62 33.173,424.625L33.173,426.865C33.173,427.568 33.743,428.137 34.445,428.137C35.147,428.137 35.717,427.568 35.717,426.865L35.717,424.611C37.051,423.961 38.457,423.473 39.941,423.473L68.834,423.473C70.321,423.473 71.729,423.963 73.066,424.614C73.069,424.616 73.073,424.616 73.077,424.618L73.077,426.865C73.077,427.568 73.646,428.137 74.349,428.137C75.052,428.137 75.621,427.568 75.621,426.865L75.621,424.618C75.625,424.616 75.629,424.616 75.633,424.614C76.969,423.963 78.378,423.473 79.864,423.473L100.65,423.473C101.44,423.473 102.081,424.114 102.081,424.904L102.081,429.038ZM6.257,417.257L5.512,411.735L7.092,411.735L7.092,417.257L6.257,417.257ZM6.257,385.898L7.092,385.898L7.092,391.42L5.512,391.42L6.257,385.898ZM6.694,374.118C6.694,373.445 7.24,372.899 7.913,372.899L100.862,372.899C101.535,372.899 102.081,373.445 102.081,374.118L102.081,378.251C102.081,379.041 101.44,379.682 100.65,379.682L79.864,379.682C78.378,379.682 76.969,379.193 75.633,378.541C75.623,378.536 75.611,378.535 75.601,378.53L75.601,376.29C75.601,375.588 75.032,375.018 74.329,375.018C73.626,375.018 73.057,375.588 73.057,376.29L73.057,378.545C71.724,379.195 70.317,379.682 68.834,379.682L39.941,379.682C38.454,379.682 37.045,379.193 35.709,378.541C35.706,378.54 35.702,378.539 35.698,378.537L35.698,376.29C35.698,375.588 35.129,375.018 34.426,375.018C33.724,375.018 33.155,375.588 33.155,376.29L33.155,378.537C33.151,378.539 33.146,378.539 33.142,378.541C31.806,379.193 30.397,379.682 28.91,379.682L8.125,379.682C7.335,379.682 6.694,379.041 6.694,378.251L6.694,374.118ZM102.518,385.898L103.262,391.42L101.684,391.42L101.684,385.898L102.518,385.898ZM72.659,392.691L73.403,387.17L75.257,387.17L76.001,392.691L72.659,392.691ZM32.754,392.691L33.499,387.17L35.354,387.17L36.098,392.691L32.754,392.691ZM36.117,410.463L35.372,415.985L33.518,415.985L32.773,410.463L36.117,410.463ZM76.019,410.463L75.276,415.985L73.421,415.985L72.677,410.463L76.019,410.463ZM79.864,420.93C78.501,420.93 77.125,421.235 75.621,421.847L75.621,418.521C76.705,418.476 77.618,417.659 77.762,416.579L78.585,410.473C78.672,409.83 78.477,409.179 78.049,408.69C77.622,408.2 77.003,407.92 76.354,407.92L75.603,407.92L75.611,406.509C75.615,405.807 75.048,405.235 74.345,405.231L74.339,405.231C73.64,405.231 73.071,405.796 73.067,406.496L73.06,407.92L72.343,407.92C71.694,407.92 71.075,408.2 70.648,408.69C70.219,409.179 70.024,409.83 70.111,410.473L70.935,416.577C71.078,417.659 71.993,418.477 73.077,418.521L73.077,421.846C71.573,421.235 70.198,420.93 68.834,420.93L39.941,420.93C38.583,420.93 37.214,421.232 35.717,421.838L35.717,418.521C36.799,418.477 37.713,417.661 37.859,416.579L38.683,410.472C38.769,409.829 38.574,409.178 38.145,408.69C37.718,408.2 37.1,407.92 36.45,407.92L35.701,407.92L35.708,406.509C35.711,405.806 35.144,405.235 34.442,405.231L34.436,405.231C33.736,405.231 33.168,405.796 33.164,406.496L33.157,407.92L32.44,407.92C31.79,407.92 31.172,408.2 30.745,408.69C30.317,409.179 30.121,409.83 30.208,410.473L31.031,416.58C31.178,417.661 32.091,418.477 33.173,418.521L33.173,421.855C31.662,421.238 30.28,420.93 28.91,420.93L9.635,420.93L9.635,382.226L28.91,382.226C30.274,382.226 31.65,381.92 33.155,381.308L33.155,384.634C32.073,384.678 31.159,385.494 31.012,386.576L30.189,392.683C30.102,393.327 30.298,393.977 30.726,394.466C31.154,394.955 31.772,395.235 32.421,395.235L33.155,395.235L33.155,396.745C33.155,397.448 33.724,398.017 34.426,398.017C35.129,398.017 35.698,397.448 35.698,396.745L35.698,395.235L36.432,395.235C37.082,395.235 37.7,394.954 38.128,394.465C38.555,393.976 38.751,393.326 38.664,392.682L37.84,386.576C37.694,385.494 36.78,384.678 35.698,384.634L35.698,381.309C37.202,381.92 38.577,382.226 39.941,382.226L68.834,382.226C70.192,382.226 71.561,381.924 73.057,381.318L73.057,384.634C71.973,384.679 71.06,385.496 70.916,386.576L70.093,392.682C70.006,393.326 70.201,393.976 70.629,394.465C71.056,394.954 71.675,395.235 72.324,395.235L73.057,395.235L73.057,396.745C73.057,397.448 73.626,398.017 74.329,398.017C75.032,398.017 75.601,397.448 75.601,396.745L75.601,395.235L76.335,395.235C76.985,395.235 77.603,394.954 78.03,394.465C78.459,393.976 78.654,393.326 78.567,392.682L77.743,386.579C77.6,385.496 76.685,384.678 75.601,384.634L75.601,381.3C77.113,381.917 78.495,382.226 79.864,382.226L99.139,382.226L99.139,420.93L79.864,420.93ZM103.596,409.192L102.717,409.192L102.717,407.033C102.717,406.415 102.268,405.924 101.684,405.809L101.684,397.969C102.268,397.854 102.717,397.363 102.717,396.745L102.717,394.096C102.717,394.049 102.695,394.009 102.69,393.963L103.596,393.963C104.246,393.963 104.864,393.683 105.292,393.193C105.72,392.704 105.915,392.054 105.828,391.41L105.005,385.304C104.854,384.192 103.894,383.354 102.773,383.354L101.684,383.354L101.684,382.072C103.372,381.614 104.625,380.083 104.625,378.251L104.625,374.118C104.625,372.043 102.937,370.355 100.862,370.355L7.913,370.355C5.838,370.355 4.151,372.043 4.151,374.118L4.151,378.251C4.151,380.083 5.403,381.614 7.092,382.072L7.092,383.354L6.002,383.354C4.88,383.354 3.921,384.192 3.77,385.305L2.947,391.41C2.86,392.054 3.056,392.704 3.483,393.193C3.911,393.683 4.529,393.963 5.179,393.963L6.085,393.963C6.08,394.009 6.058,394.049 6.058,394.096L6.058,396.745C6.058,397.363 6.508,397.854 7.092,397.969L7.092,405.809C6.508,405.924 6.058,406.415 6.058,407.033L6.058,409.192L5.179,409.192C4.529,409.192 3.912,409.472 3.484,409.962C3.056,410.451 2.86,411.102 2.947,411.745L3.771,417.852C3.921,418.963 4.88,419.801 6.002,419.801L7.092,419.801L7.092,421.083C5.403,421.541 4.151,423.072 4.151,424.904L4.151,429.038C4.151,431.112 5.838,432.8 7.913,432.8L100.862,432.8C102.937,432.8 104.625,431.112 104.625,429.038L104.625,424.904C104.625,423.072 103.372,421.541 101.684,421.083L101.684,419.801L102.773,419.801C103.894,419.801 104.853,418.963 105.005,417.851L105.828,411.745C105.915,411.102 105.72,410.451 105.292,409.962C104.864,409.472 104.246,409.192 103.596,409.192Z" style="fill-rule:nonzero;"/>
        </g>
    </g>
</svg>
