<?xml version="1.0" encoding="UTF-8" standalone="no"?>
<!DOCTYPE svg PUBLIC "-//W3C//DTD SVG 1.1//EN" "http://www.w3.org/Graphics/SVG/1.1/DTD/svg11.dtd">
<svg width="100%" height="100%" viewBox="0 0 1000 1000" version="1.1" xmlns="http://www.w3.org/2000/svg" xmlns:xlink="http://www.w3.org/1999/xlink" xml:space="preserve" xmlns:serif="http://www.serif.com/" style="fill-rule:evenodd;clip-rule:evenodd;stroke-linejoin:round;stroke-miterlimit:2;">
    <g id="unassigned" transform="matrix(1,0,0,1,-86.820617,20.172113)">
        <g transform="matrix(8.690006,0,0,8.690006,-1890.895509,-1083.081624)">
            <path d="M322.669,142.082C320.51,139.923 316.374,140.643 313.226,143.79C312.147,144.87 311.248,146.129 310.798,147.478L299.467,157.55C297.848,158.989 296.229,160.428 294.7,161.956L247.576,209.08C245.328,211.329 245.328,214.926 247.576,217.174C249.825,219.422 253.422,219.422 255.67,217.174L303.513,169.331C304.593,168.252 305.672,167.173 306.751,165.914L317.273,153.953C318.532,153.413 319.881,152.604 320.96,151.524C324.108,148.377 324.827,144.24 322.669,142.082ZM320.87,143.88C322.039,145.05 321.23,147.658 319.161,149.726C318.082,150.805 316.913,151.435 315.834,151.794L304.773,164.295C303.783,165.464 302.704,166.543 301.715,167.532L253.962,215.286C252.702,216.545 250.724,216.545 249.465,215.286C248.206,214.027 248.206,212.048 249.465,210.789L296.589,163.665C298.028,162.226 299.557,160.697 301.085,159.348L312.866,148.827C313.226,147.747 313.856,146.578 314.935,145.499C317.093,143.521 319.701,142.711 320.87,143.88Z" style="fill-rule:nonzero;"/>
        </g>
        <g transform="matrix(8.690006,0,0,8.690006,-1890.895509,-1083.081624)">
            <path d="M276.907,175.909L269.16,168.162C267.721,166.723 266.192,165.194 264.843,163.665L254.321,151.884C253.242,151.524 252.073,150.895 250.994,149.816C249.015,147.657 248.206,145.05 249.375,143.88C250.544,142.711 253.152,143.521 255.221,145.589C256.299,146.668 256.928,147.837 257.289,148.916L269.789,159.978C270.958,160.967 272.038,162.046 273.027,163.036L281.403,171.412L283.202,169.613L274.826,161.237C273.746,160.158 272.667,159.079 271.408,157.999L259.446,147.478C258.907,146.219 258.097,144.87 257.019,143.79C253.872,140.643 249.735,139.923 247.576,142.082C245.418,144.24 246.137,148.377 249.285,151.524C250.364,152.604 251.623,153.503 252.972,153.953L263.044,165.284C264.483,166.903 265.922,168.522 267.451,170.05L275.108,177.707L276.907,175.909Z" style="fill-rule:nonzero;"/>
        </g>
        <g transform="matrix(8.690006,0,0,8.690006,-1890.895509,-1083.081624)">
            <path d="M322.669,209.08L294.915,181.327L293.117,183.126L320.78,210.789C322.039,212.048 322.039,214.027 320.78,215.286C319.521,216.545 317.543,216.545 316.284,215.286L288.62,187.622L286.822,189.421L314.575,217.174C316.823,219.422 320.421,219.422 322.669,217.174C324.917,214.926 324.917,211.329 322.669,209.08Z" style="fill-rule:nonzero;"/>
        </g>
    </g>
</svg>
